<?xml version="1.0" standalone="no"?>
<!DOCTYPE svg PUBLIC "-//W3C//DTD SVG 20010904//EN"
 "http://www.w3.org/TR/2001/REC-SVG-20010904/DTD/svg10.dtd">
<svg version="1.0" xmlns="http://www.w3.org/2000/svg"
 width="166.000000pt" height="104.000000pt" viewBox="0 0 166.000000 104.000000"
 preserveAspectRatio="xMidYMid meet">

<g transform="translate(0.000000,104.000000) scale(0.100000,-0.100000)"
fill="#000000" stroke="none">
<path d="M67 647 c-4 -10 -10 -42 -13 -71 l-6 -52 63 -51 c35 -28 80 -67 98
-87 40 -41 51 -44 75 -18 16 18 11 24 -93 115 -104 92 -110 99 -113 139 -2 31
-5 38 -11 25z"/>
<path d="M276 551 c30 -27 34 -28 115 -23 61 4 87 9 96 21 10 14 3 17 -60 22
-40 4 -97 7 -127 7 l-55 1 31 -28z"/>
<path d="M310 250 c-36 -33 -61 -59 -56 -60 12 0 111 81 125 103 21 32 -3 17
-69 -43z"/>
<path d="M66 145 c-5 -16 -10 -45 -10 -65 l-1 -35 211 -3 c190 -2 212 -1 218
14 4 9 4 19 2 21 -2 3 -95 7 -205 10 l-200 6 -3 41 c-4 41 -4 41 -12 11z"/>
</g>
</svg>
